<svg version="1.0" xmlns="http://www.w3.org/2000/svg"
     width="512" height="512" viewBox="0 0 738.970118 345.619778"
     preserveAspectRatio="xMidYMid meet">
    <metadata>Created by Svg.la</metadata>
    <g transform="translate(-114.092165,668.711497) scale(0.100000,-0.100000)"
       fill="white" stroke="none">
        <path d="M7410 6681 c-9 -7 -43 -9 -86 -5 -67 6 -76 4 -134 -25 -70 -36 -202
-133 -270 -199 -24 -24 -68 -55 -97 -68 -56 -27 -135 -106 -256 -257 -48 -59
-88 -97 -121 -116 -28 -16 -68 -47 -89 -68 -37 -39 -38 -42 -46 -139 -5 -54
-14 -112 -20 -128 -8 -20 -12 -141 -11 -399 0 -494 18 -818 57 -1064 15 -94
15 -104 -1 -142 -9 -23 -16 -69 -16 -102 0 -54 3 -64 29 -90 23 -23 38 -29 71
-29 46 0 47 0 175 -144 119 -133 312 -278 463 -347 149 -69 197 -83 367 -105
31 -5 70 5 175 40 261 90 328 121 435 201 55 41 105 75 112 75 6 0 41 -37 77
-82 62 -78 65 -83 63 -132 l-2 -50 55 -28 c30 -15 63 -28 73 -28 11 0 41 18
68 41 60 50 65 83 19 131 l-30 31 0 146 c1 149 4 212 40 751 26 389 28 906 4
1067 -18 126 -53 273 -90 375 -71 196 -245 469 -399 624 -89 89 -107 102 -160
118 -32 10 -76 29 -97 42 -59 38 -238 104 -293 110 -27 3 -57 0 -65 -5z m199
-113 c105 -37 121 -47 172 -97 30 -31 85 -81 120 -111 59 -49 145 -147 207
-233 85 -119 174 -514 238 -1057 21 -179 21 -747 0 -854 -8 -39 -20 -120 -27
-181 -10 -96 -16 -118 -47 -173 -20 -34 -41 -61 -47 -59 -13 4 -192 212 -303
351 -199 250 -240 289 -282 266 -45 -24 -32 -86 30 -145 17 -16 53 -64 78
-105 60 -96 265 -401 309 -459 18 -24 33 -51 33 -60 -1 -17 -166 -148 -215
-169 -48 -22 -286 -102 -331 -112 -22 -5 -51 -14 -65 -20 -20 -9 -48 -4 -156
24 -283 75 -533 245 -707 478 -54 73 -57 80 -51 118 5 31 2 47 -13 72 -11 18
-29 63 -41 101 -19 63 -20 79 -11 255 11 217 15 285 35 517 8 94 22 260 30
370 9 111 27 256 41 325 47 230 146 489 250 656 68 109 205 224 366 309 53 27
58 28 75 13 34 -31 68 -32 115 -4 24 14 52 26 62 26 10 0 71 -19 135 -42z
m-939 -482 c0 -7 -11 -43 -25 -79 -26 -70 -81 -274 -114 -422 -22 -101 -40
-218 -70 -475 -32 -264 -41 -333 -48 -355 -13 -38 -21 33 -22 190 -1 164 33
676 50 740 14 54 83 217 121 285 54 97 108 155 108 116z m1730 -441 c36 -106
60 -236 60 -319 0 -33 -2 -57 -5 -54 -3 3 -14 49 -24 104 -27 137 -49 240 -67
298 -7 27 -14 59 -14 70 0 33 16 3 50 -99z m-82 -1917 c-4 -27 -28 -36 -28
-10 0 20 8 32 22 32 5 0 8 -10 6 -22z m-41 -131 c8 -16 12 -31 9 -35 -12 -11
-66 52 -66 76 0 25 0 25 21 6 12 -10 28 -32 36 -47z"/>
        <path d="M3200 6575 c-9 -11 -34 -15 -94 -15 -44 0 -144 -7 -221 -15 -229 -25
-348 -34 -580 -45 -121 -6 -257 -15 -303 -21 -46 -5 -221 -14 -389 -19 l-305
-9 -25 29 c-42 50 -85 32 -98 -42 -4 -20 -16 -44 -26 -54 -25 -23 -24 -56 4
-91 13 -15 31 -41 41 -56 30 -48 71 -32 102 41 6 12 563 83 672 85 l83 2 5
-265 c2 -146 9 -312 15 -370 6 -58 10 -163 10 -235 0 -186 -17 -506 -28 -535
-17 -46 8 -661 37 -890 5 -41 9 -156 10 -256 0 -168 1 -182 20 -199 16 -15 20
-31 20 -87 0 -57 -5 -77 -30 -121 -36 -64 -37 -76 -8 -112 19 -25 25 -26 62
-19 23 4 82 8 133 9 157 4 187 32 139 134 -14 31 -35 92 -47 136 -19 71 -21
96 -15 235 3 85 9 342 12 570 6 381 5 436 -16 665 -19 208 -21 278 -14 415 4
91 7 208 7 260 -1 155 -21 629 -28 650 -3 10 -2 21 4 24 5 3 103 8 218 11 114
3 251 9 303 15 198 20 293 9 304 -35 5 -19 13 -25 35 -25 35 0 53 19 86 93 30
64 27 86 -13 130 -28 30 -63 35 -82 12z m-1020 -1675 c6 -146 18 -323 25 -395
32 -289 39 -467 27 -658 -18 -287 -44 -338 -55 -107 -4 69 -16 242 -27 385
-27 349 -36 744 -21 965 21 312 31 276 51 -190z"/>
        <path d="M5327 6467 c-15 -24 -18 -24 -274 -31 -142 -5 -457 -10 -700 -12
-426 -3 -442 -2 -466 16 -29 23 -64 25 -89 6 -13 -9 -31 -10 -70 -4 -144 22
-133 23 -177 -12 -23 -19 -41 -42 -41 -52 0 -31 19 -58 41 -58 31 0 33 -24 15
-159 -42 -321 -69 -815 -82 -1541 -6 -323 -4 -378 31 -716 8 -78 17 -229 20
-338 l5 -196 -25 -12 c-35 -16 -34 -62 2 -100 30 -31 64 -35 103 -13 31 17 92
19 136 3 27 -10 39 -8 82 10 61 26 179 37 577 52 406 15 688 12 920 -9 181
-17 201 -21 213 -40 25 -36 59 -27 92 26 35 55 37 84 9 124 -26 37 -65 39 -94
5 -19 -23 -23 -24 -100 -17 -44 4 -129 3 -188 -2 -80 -7 -176 -6 -375 7 -344
21 -631 21 -815 -1 -78 -9 -160 -17 -182 -17 l-40 -1 0 60 c0 33 7 161 14 285
13 204 14 370 7 1058 l-1 132 345 1 c426 2 638 -7 662 -28 25 -22 60 -12 85
26 27 39 29 80 8 121 -18 35 -60 41 -80 13 -12 -16 -42 -18 -307 -20 -161 -2
-351 -7 -423 -11 -117 -7 -220 -2 -282 13 -22 5 -23 10 -23 103 0 53 5 158 10
232 19 264 40 695 40 830 l0 136 348 2 c191 0 412 5 491 11 158 10 354 1 485
-24 43 -8 80 -15 82 -15 2 0 4 -13 4 -29 0 -29 22 -61 41 -61 16 0 59 51 65
77 7 26 -12 147 -27 175 -14 26 -54 23 -72 -5z m-1531 -138 c6 -11 6 -186 -1
-264 -2 -22 -7 -264 -11 -538 -6 -397 -10 -499 -21 -508 -17 -15 -17 -54 1
-82 21 -33 34 -479 25 -857 -6 -297 -28 -685 -36 -676 -3 2 -7 48 -9 103 -3
54 -11 194 -19 311 -19 267 -19 355 0 515 9 71 13 133 10 138 -36 58 -62 -169
-55 -476 3 -115 5 -301 5 -412 0 -176 -2 -205 -17 -219 -29 -30 -48 -11 -48
49 0 30 -6 121 -14 203 -8 82 -18 203 -21 269 -4 66 -13 199 -21 295 -8 96
-14 231 -14 300 0 160 27 761 40 905 6 61 17 189 26 285 32 365 64 531 64 332
0 -74 3 -94 15 -99 9 -3 18 -4 20 -1 17 17 9 326 -11 411 -6 26 -5 27 39 27
25 0 49 -5 53 -11z"/>
    </g>
</svg>
